<svg xmlns="http://www.w3.org/2000/svg" viewBox="0 0 64 64" role="img">
  <defs>
    <linearGradient id="voiceGradient" x1="0%" y1="0%" x2="100%" y2="100%">
      <stop offset="0%" stop-color="#2563eb" />
      <stop offset="100%" stop-color="#7c3aed" />
    </linearGradient>
  </defs>
  <circle cx="20" cy="20" r="10" fill="url(#voiceGradient)" />
  <path
    d="M14 36c2.5-5.4 4.3-8 6-8s3.5 2.6 6 8l4 9.4c.7 1.5-.4 3.3-2.1 3.3h-3.8l-2.1 9.2c-.4 1.6-2.6 1.6-3 0l-2.1-9.2H13c-1.7 0-2.8-1.8-2.1-3.3z"
    fill="#1e293b"
  />
  <path
    d="M36 24l15-8c1.3-.7 3 .2 3 1.7v28.6c0 1.5-1.7 2.4-3 1.7l-15-8z"
    fill="#2563eb"
  />
  <path
    d="M46 20c5.3 2.5 8 6.4 8 12s-2.7 9.5-8 12"
    stroke="#94a3b8"
    stroke-width="3"
    stroke-linecap="round"
    fill="none"
  />
  <path
    d="M40 27c3.7 1.8 5.6 4.4 5.6 8s-1.9 6.2-5.6 8"
    stroke="#cbd5f5"
    stroke-width="2"
    stroke-linecap="round"
    fill="none"
  />
</svg>
